# xmcd
#
# Track frame offsets:
#	150
#	13441
#	25233
#	34582
#	43727
#	55033
#	65819
#	73991
#	85425
#	93249
#	111874
#	122743
#	133500
#	145363
#	154541
#	165443
#	176923
#
# Disc length: 2642 seconds
#
# Revision: 0
# Processed by: cddbd v1.4PL0 Copyright (c) Steve Scherf et al.
# Submitted via: dBpowerAMP V4.0
#
DISCID=f30a5011
DTITLE=Varity  - Shake Your Soul
DYEAR=1900
DGENRE=
TTITLE0=Sam and Dave~Soul Man
TTITLE1=Wilson Pickett~If You Need Me 
TTITLE2=Etta James~Good Rockin' Daddy 
TTITLE3=Gladys Knight and The Pips~Room In Your Heart 
TTITLE4=Eddie Floyd~Set My Soul On Fire
TTITLE5=Betty Everett~T Can't Hear You 
TTITLE6=Coasters~Rockin ' My Soul
TTITLE7=Clarence "Frogman" Henry~But I Do 
TTITLE8=Jerry Butler and The Impressions~My Baby Loves Me 
TTITLE9=Jimmy  Jones~You Make Me Feel So Good 
TTITLE10=Irma Thomas~Set Me Free
TTITLE11=Maxine Brown~Now That You're Gone
TTITLE12=Spaniels~I'm Going To Make You  Mine 
TTITLE13=Glaydys Knight and The Pips~Everybeat Of My Heart
TTITLE14=Clodagh Rogers~Come Back And Shake Me
TTITLE15=Isly Brothers~Don't Be Jealous
TTITLE16=Sister Sledge~Everybody Dance (Live)
EXTD=
EXTT0=
EXTT1=
EXTT2=
EXTT3=
EXTT4=
EXTT5=
EXTT6=
EXTT7=
EXTT8=
EXTT9=
EXTT10=
EXTT11=
EXTT12=
EXTT13=
EXTT14=
EXTT15=
EXTT16=
PLAYORDER=
